<?xml version="1.0" encoding="iso-8859-1"?>
<!-- Uploaded to: SVG Repo, www.svgrepo.com, Generator: SVG Repo Mixer Tools -->
<!DOCTYPE svg PUBLIC "-//W3C//DTD SVG 1.1//EN" "http://www.w3.org/Graphics/SVG/1.1/DTD/svg11.dtd">
<svg fill="#000000" version="1.1" id="Capa_1" xmlns="http://www.w3.org/2000/svg" xmlns:xlink="http://www.w3.org/1999/xlink" 
	 width="800px" height="800px" viewBox="0 0 973.289 973.29"
	 xml:space="preserve">
<g>
	<g>
		<path d="M973.289,932.657v-26.169c0-5.522-4.477-10-10-10h-28.496V174.633c0-5.523-4.479-10-10-10h-98.148
			c-5.523,0-10-4.478-10-10v-114c0-5.523-4.477-10-10-10h-642c-5.523,0-10,4.477-10,10v114c0,5.522-4.477,10-10,10H46.498
			c-5.523,0-10,4.477-10,10v721.854H10c-5.523,0-10,4.478-10,10v26.169c0,5.523,4.477,10,10,10h953.289
			C968.812,942.657,973.289,938.18,973.289,932.657z M142.209,874.303c0,5.522-4.477,10-10,10H80.111c-5.523,0-10-4.478-10-10
			v-86.955c0-5.523,4.477-10,10-10h52.097c5.523,0,10,4.477,10,10L142.209,874.303L142.209,874.303z M142.209,729.134
			c0,5.522-4.477,10-10,10H80.111c-5.523,0-10-4.478-10-10v-86.955c0-5.523,4.477-10,10-10h52.097c5.523,0,10,4.477,10,10
			L142.209,729.134L142.209,729.134z M142.209,583.965c0,5.522-4.477,10-10,10H80.111c-5.523,0-10-4.478-10-10V497.01
			c0-5.523,4.477-10,10-10h52.097c5.523,0,10,4.477,10,10L142.209,583.965L142.209,583.965z M142.209,372.791
			c0,5.522-4.477,10-10,10H80.111c-5.523,0-10-4.478-10-10v-86.956c0-5.522,4.477-10,10-10h52.097c5.523,0,10,4.478,10,10
			L142.209,372.791L142.209,372.791z M394.549,285.834c0-5.522,4.477-10,10-10h52.097c5.523,0,10,4.478,10,10v86.955
			c0,5.523-4.477,10-10,10h-52.097c-5.523,0-10-4.477-10-10V285.834z M394.549,497.01c0-5.523,4.477-10,10-10h52.097
			c5.523,0,10,4.477,10,10v86.955c0,5.522-4.477,10-10,10h-52.097c-5.523,0-10-4.478-10-10V497.01z M394.549,642.179
			c0-5.523,4.477-10,10-10h52.097c5.523,0,10,4.477,10,10v86.955c0,5.522-4.477,10-10,10h-52.097c-5.523,0-10-4.478-10-10V642.179z
			 M250.354,874.303c0,5.522-4.477,10-10,10h-52.097c-5.523,0-10-4.478-10-10v-86.955c0-5.523,4.477-10,10-10h52.097
			c5.523,0,10,4.477,10,10V874.303z M250.354,729.134c0,5.522-4.477,10-10,10h-52.097c-5.523,0-10-4.478-10-10v-86.955
			c0-5.523,4.477-10,10-10h52.097c5.523,0,10,4.477,10,10V729.134z M250.354,583.965c0,5.522-4.477,10-10,10h-52.097
			c-5.523,0-10-4.478-10-10V497.01c0-5.523,4.477-10,10-10h52.097c5.523,0,10,4.477,10,10V583.965z M250.354,372.791
			c0,5.522-4.477,10-10,10h-52.097c-5.523,0-10-4.478-10-10v-86.956c0-5.522,4.477-10,10-10h52.097c5.523,0,10,4.478,10,10V372.791z
			 M358.5,874.303c0,5.522-4.478,10-10,10h-52.098c-5.523,0-10-4.478-10-10v-86.955c0-5.523,4.477-10,10-10H348.5
			c5.522,0,10,4.477,10,10V874.303L358.5,874.303z M358.5,729.134c0,5.522-4.478,10-10,10h-52.098c-5.523,0-10-4.478-10-10v-86.955
			c0-5.523,4.477-10,10-10H348.5c5.522,0,10,4.477,10,10V729.134L358.5,729.134z M358.5,583.965c0,5.522-4.478,10-10,10h-52.098
			c-5.523,0-10-4.478-10-10V497.01c0-5.523,4.477-10,10-10H348.5c5.522,0,10,4.477,10,10V583.965L358.5,583.965z M358.5,372.791
			c0,5.522-4.478,10-10,10h-52.098c-5.523,0-10-4.478-10-10v-86.956c0-5.522,4.477-10,10-10H348.5c5.522,0,10,4.478,10,10V372.791
			L358.5,372.791z M574.791,896.488H394.549V784.696c0-5.522,4.477-10,10-10h160.242c5.523,0,10,4.478,10,10V896.488z
			 M574.791,729.134c0,5.522-4.477,10-10,10h-52.096c-5.523,0-10-4.478-10-10v-86.955c0-5.523,4.477-10,10-10h52.096
			c5.523,0,10,4.477,10,10V729.134z M574.791,583.965c0,5.522-4.477,10-10,10h-52.096c-5.523,0-10-4.478-10-10V497.01
			c0-5.523,4.477-10,10-10h52.096c5.523,0,10,4.477,10,10V583.965z M574.791,372.791c0,5.522-4.477,10-10,10h-52.096
			c-5.523,0-10-4.478-10-10v-86.956c0-5.522,4.477-10,10-10h52.096c5.523,0,10,4.478,10,10V372.791z M682.938,874.303
			c0,5.522-4.477,10-10,10h-52.096c-5.523,0-10-4.478-10-10v-86.955c0-5.523,4.477-10,10-10h52.096c5.523,0,10,4.477,10,10V874.303z
			 M682.938,729.134c0,5.522-4.477,10-10,10h-52.096c-5.523,0-10-4.478-10-10v-86.955c0-5.523,4.477-10,10-10h52.096
			c5.523,0,10,4.477,10,10V729.134z M682.938,583.965c0,5.522-4.477,10-10,10h-52.096c-5.523,0-10-4.478-10-10V497.01
			c0-5.523,4.477-10,10-10h52.096c5.523,0,10,4.477,10,10V583.965z M682.938,372.791c0,5.522-4.477,10-10,10h-52.096
			c-5.523,0-10-4.478-10-10v-86.956c0-5.522,4.477-10,10-10h52.096c5.523,0,10,4.478,10,10V372.791z M791.084,874.303
			c0,5.522-4.477,10-10,10h-52.098c-5.521,0-10-4.478-10-10v-86.955c0-5.523,4.479-10,10-10h52.098c5.523,0,10,4.477,10,10V874.303z
			 M791.084,729.134c0,5.522-4.477,10-10,10h-52.098c-5.521,0-10-4.478-10-10v-86.955c0-5.523,4.479-10,10-10h52.098
			c5.523,0,10,4.477,10,10V729.134z M791.084,583.965c0,5.522-4.477,10-10,10h-52.098c-5.521,0-10-4.478-10-10V497.01
			c0-5.523,4.479-10,10-10h52.098c5.523,0,10,4.477,10,10V583.965z M791.084,372.791c0,5.522-4.477,10-10,10h-52.098
			c-5.521,0-10-4.478-10-10v-86.956c0-5.522,4.479-10,10-10h52.098c5.523,0,10,4.478,10,10V372.791z M899.23,874.303
			c0,5.522-4.477,10-10,10h-52.098c-5.523,0-10-4.478-10-10v-86.955c0-5.523,4.477-10,10-10h52.098c5.523,0,10,4.477,10,10V874.303z
			 M899.23,729.134c0,5.522-4.477,10-10,10h-52.098c-5.523,0-10-4.478-10-10v-86.955c0-5.523,4.477-10,10-10h52.098
			c5.523,0,10,4.477,10,10V729.134z M899.23,583.965c0,5.522-4.477,10-10,10h-52.098c-5.523,0-10-4.478-10-10V497.01
			c0-5.523,4.477-10,10-10h52.098c5.523,0,10,4.477,10,10V583.965z M899.23,372.791c0,5.522-4.477,10-10,10h-52.098
			c-5.523,0-10-4.478-10-10v-86.956c0-5.522,4.477-10,10-10h52.098c5.523,0,10,4.478,10,10V372.791z"/>
	</g>
</g>
</svg>