<?xml version="1.0" encoding="iso-8859-1"?>
<!-- Uploaded to: SVG Repo, www.svgrepo.com, Generator: SVG Repo Mixer Tools -->
<svg fill="#000000" height="800px" width="800px" version="1.1" id="Capa_1" xmlns="http://www.w3.org/2000/svg" xmlns:xlink="http://www.w3.org/1999/xlink" 
	 viewBox="0 0 62.608 62.608" xml:space="preserve">
<g>
	<path d="M45.57,44.082V19.25c0-2.873-2.331-5.203-5.206-5.203h-8.35l5.329-13.612h6.563V3.4h0.434V0H18.268v3.4h0.433V0.435h6.563
		l5.329,13.613h-8.349c-2.875,0-5.206,2.33-5.206,5.203v24.832c0,2.816,2.235,5.102,5.027,5.195l-5.027,13.33h3.905l5.023-13.318
		H36.64l5.023,13.318h3.905l-5.026-13.33C43.333,49.184,45.57,46.899,45.57,44.082z M25.772,0.435h11.063l-5.286,13.613h-0.082
		H31.14h-0.083L25.772,0.435z M36.027,15.836l-0.001,2.652h-9.444l-0.001-2.652C26.581,15.836,36.027,15.836,36.027,15.836z
		 M24.196,44.246c-1.198,0-2.17-0.971-2.17-2.17s0.973-2.17,2.17-2.17s2.167,0.971,2.167,2.17S25.393,44.246,24.196,44.246z
		 M38.412,44.246c-1.199,0-2.168-0.971-2.168-2.17s0.969-2.17,2.168-2.17c1.196,0,2.169,0.971,2.169,2.17
		S39.609,44.246,38.412,44.246z M42.028,28.535c0,2.875-2.329,5.206-5.205,5.206H25.785c-2.876,0-5.205-2.33-5.205-5.206v-2.601
		c0-2.875,2.33-5.205,5.205-5.205h11.038c2.876,0,5.205,2.33,5.205,5.205V28.535z"/>
</g>
</svg>